PathFileType	4	(x/y/z)	S05_SL_Cal_T01
DataRate	CameraRate	NumFrames	NumMarkers	Units	OrigDataRate	OrigDataStartFrame	OrigNumFrames
240	240	4	50	mm	240	301	2400
Frame#	Time	Sternum			R.Acromium			L.Acromium			Top.Head			R.ASIS			L.ASIS			R.PSIS			L.PSIS			R.Great.Tro			L.Great.Tro			R.Iliac.Crest			L.Iliac.Crest			V.Sacral			R.Thigh.Upper.Post			R.Thigh.Lower.Ant			R.Thigh.Lower.Post			R.Thigh.Upper.Ant			R.Knee.Lat			R.Knee.Med			R.Shank.Upper.Post			R.Shank.Lower.Ant			R.Shank.Lower.Post			R.Shank.Upper.Ant			R.Ankle.Lat			R.Ankle.Med			R.Heel.Upper			R.Heel.Med			R.Heel.Lat			R.Toe.Lat			R.Toe.Med			R.Toe.Tip			L.Thigh.Upper.Post			L.Thigh.Lower.Ant			L.Thigh.Lower.Post			L.Thigh.Upper.Ant			L.Knee.Lat			L.Shank.Upper.Post			L.Shank.Lower.Ant			L.Shank.Lower.Post			L.Shank.Upper.Ant			L.Ankle.Lat			L.Ankle.Med			L.Heel.Upper			L.Heel.Med			L.Heel.Lat			L.Toe.Lat			L.Toe.Med			L.Toe.Tip			Cervical.Spine			Back			
		X1	Y1	Z1	X2	Y2	Z2	X3	Y3	Z3	X4	Y4	Z4	X5	Y5	Z5	X6	Y6	Z6	X7	Y7	Z7	X8	Y8	Z8	X9	Y9	Z9	X10	Y10	Z10	X11	Y11	Z11	X12	Y12	Z12	X13	Y13	Z13	X14	Y14	Z14	X15	Y15	Z15	X16	Y16	Z16	X17	Y17	Z17	X18	Y18	Z18	X19	Y19	Z19	X20	Y20	Z20	X21	Y21	Z21	X22	Y22	Z22	X23	Y23	Z23	X24	Y24	Z24	X25	Y25	Z25	X26	Y26	Z26	X27	Y27	Z27	X28	Y28	Z28	X29	Y29	Z29	X30	Y30	Z30	X31	Y31	Z31	X32	Y32	Z32	X33	Y33	Z33	X34	Y34	Z34	X35	Y35	Z35	X36	Y36	Z36	X37	Y37	Z37	X38	Y38	Z38	X39	Y39	Z39	X40	Y40	Z40	X41	Y41	Z41	X42	Y42	Z42	X43	Y43	Z43	X44	Y44	Z44	X45	Y45	Z45	X46	Y46	Z46	X47	Y47	Z47	X48	Y48	Z48	X49	Y49	Z49	X50	Y50	Z50	

301	1.25	536.3	1285.7	336.83	421.44	1532.4	496.27	407.65	1545.5	158.36	406.73	1850.6	335.53	487.62	1016.5	465.36	500.53	1024	214.11	291.25	1049.7	370.84	297.22	1052.2	279.77	396.83	941.54	521.62	404.79	950.51	137.14	399.44	1105.4	500.78	411.62	1105.7	165.21	279.19	1014	335.81	425.99	718.86	529.07	468.65	638.23	481.96	402.26	632.75	512.5	488.75	724.47	498.91	385.9	537.64	494.16	380.8	513.21	364.86	297.68	303.04	510.93	359.9	236.62	512.4	294.8	226.53	500.05	362.21	314.54	520.27	347.02	125.71	504.95	348.83	140.18	417.11	272.55	75.107	456.7	280.68	41.732	429.68	283.18	48.781	494.61	452.05	37.355	534.32	478.69	40.534	412.37	546.01	57.139	452.74	385.41	716.1	125.77	455.99	633.47	146.81	385.14	620.79	137.54	463.35	723.96	134.92	387.12	528.41	139.69	315.56	333.63	121.36	380.82	273.23	123.58	311.04	260.93	134.43	381.2	344.14	116.7	340.26	117.06	133.24	368.38	128.16	221.44	278.48	68.719	178.48	289.11	44.018	210.94	283.5	41.541	149.85	468.18	39.565	103.86	486.09	50.39	224.03	553.04	59.009	171.76	362.23	1580	334.37	275.47	1295.2	332.29
302	1.2542	536.33	1285.7	336.83	421.49	1532.4	496.28	407.7	1545.5	158.37	406.77	1850.6	335.54	487.64	1016.5	465.37	500.56	1024	214.12	291.27	1049.7	370.86	297.25	1052.2	279.79	396.86	941.53	521.63	404.82	950.51	137.15	399.46	1105.4	500.79	411.64	1105.7	165.22	279.22	1014	335.82	426.02	718.85	529.08	468.67	638.23	481.96	402.27	632.75	512.51	488.77	724.47	498.91	385.91	537.65	494.17	380.81	513.21	364.87	297.69	303.04	510.94	359.91	236.62	512.41	294.8	226.53	500.05	362.22	314.54	520.28	347.02	125.72	504.95	348.84	140.18	417.11	272.55	75.108	456.7	280.68	41.733	429.68	283.18	48.781	494.61	452.06	37.355	534.32	478.69	40.533	412.38	546.01	57.138	452.75	385.43	716.1	125.77	456	633.47	146.82	385.16	620.79	137.55	463.37	723.96	134.93	387.13	528.41	139.69	315.57	333.64	121.36	380.83	273.23	123.58	311.04	260.93	134.43	381.21	344.14	116.7	340.26	117.07	133.24	368.38	128.16	221.44	278.48	68.721	178.49	289.11	44.018	210.94	283.5	41.543	149.85	468.18	39.565	103.86	486.1	50.389	224.03	553.04	59.007	171.76	362.26	1580	334.39	275.5	1295.2	332.3
303	1.2583	536.36	1285.7	336.83	421.54	1532.4	496.29	407.75	1545.5	158.38	406.8	1850.6	335.55	487.67	1016.5	465.39	500.58	1024	214.14	291.3	1049.7	370.87	297.28	1052.2	279.8	396.88	941.53	521.64	404.84	950.51	137.16	399.48	1105.4	500.81	411.66	1105.7	165.23	279.24	1014	335.83	426.04	718.84	529.09	468.68	638.23	481.97	402.29	632.75	512.52	488.79	724.47	498.92	385.92	537.65	494.19	380.82	513.22	364.88	297.7	303.04	510.94	359.92	236.62	512.41	294.81	226.53	500.05	362.23	314.54	520.29	347.02	125.72	504.96	348.84	140.19	417.11	272.55	75.11	456.7	280.68	41.734	429.68	283.18	48.782	494.61	452.06	37.355	534.32	478.69	40.532	412.38	546.01	57.138	452.75	385.45	716.1	125.78	456.02	633.47	146.83	385.18	620.79	137.56	463.39	723.96	134.94	387.14	528.41	139.7	315.58	333.64	121.36	380.84	273.23	123.58	311.05	260.94	134.43	381.22	344.14	116.71	340.27	117.07	133.24	368.39	128.16	221.45	278.48	68.723	178.49	289.11	44.019	210.94	283.5	41.546	149.85	468.18	39.565	103.86	486.1	50.387	224.04	553.04	59.004	171.77	362.3	1580	334.41	275.53	1295.2	332.31
304	1.2625	536.39	1285.7	336.83	421.59	1532.4	496.3	407.79	1545.5	158.38	406.83	1850.6	335.56	487.69	1016.5	465.4	500.61	1024	214.15	291.33	1049.7	370.88	297.3	1052.2	279.82	396.9	941.53	521.65	404.86	950.51	137.18	399.51	1105.4	500.82	411.67	1105.7	165.24	279.27	1014	335.84	426.06	718.83	529.1	468.7	638.23	481.98	402.31	632.75	512.53	488.81	724.47	498.93	385.94	537.65	494.2	380.83	513.22	364.89	297.71	303.04	510.95	359.93	236.62	512.42	294.81	226.53	500.05	362.24	314.54	520.29	347.03	125.72	504.96	348.84	140.19	417.11	272.55	75.111	456.7	280.68	41.735	429.68	283.18	48.783	494.61	452.06	37.356	534.33	478.69	40.531	412.38	546.01	57.137	452.75	385.47	716.1	125.79	456.04	633.47	146.84	385.19	620.79	137.56	463.41	723.96	134.95	387.16	528.41	139.71	315.59	333.65	121.37	380.84	273.23	123.59	311.06	260.94	134.43	381.23	344.15	116.71	340.27	117.08	133.24	368.39	128.16	221.45	278.49	68.725	178.49	289.11	44.02	210.94	283.5	41.548	149.85	468.18	39.565	103.86	486.1	50.386	224.04	553.04	59.002	171.77	362.34	1580	334.43	275.56	1295.2	332.32
